<svg width="25" height="25" viewBox="0 0 25 25" fill="none" xmlns="http://www.w3.org/2000/svg">
<path fill-rule="evenodd" clip-rule="evenodd" d="M23.4375 12.5C23.4375 12.7072 23.3552 12.9059 23.2087 13.0524C23.0622 13.1989 22.8635 13.2813 22.6562 13.2813L4.22969 13.2813L9.14687 18.1969C9.29357 18.3436 9.37599 18.5425 9.37599 18.75C9.37599 18.9575 9.29357 19.1564 9.14687 19.3031C9.00018 19.4498 8.80121 19.5322 8.59375 19.5322C8.38629 19.5322 8.18732 19.4498 8.04062 19.3031L1.79062 13.0531C1.71787 12.9806 1.66015 12.8943 1.62076 12.7994C1.58138 12.7045 1.5611 12.6028 1.5611 12.5C1.5611 12.3972 1.58138 12.2955 1.62076 12.2006C1.66015 12.1057 1.71787 12.0195 1.79062 11.9469L8.04062 5.69688C8.18732 5.55019 8.38629 5.46777 8.59375 5.46777C8.80121 5.46777 9.00018 5.55019 9.14688 5.69688C9.29357 5.84358 9.37599 6.04255 9.37599 6.25001C9.37599 6.45747 9.29357 6.65644 9.14688 6.80313L4.22969 11.7188L22.6562 11.7188C22.8635 11.7188 23.0622 11.8011 23.2087 11.9476C23.3552 12.0941 23.4375 12.2928 23.4375 12.5Z" fill="white"/>
</svg>
