<svg width="29" height="29" viewBox="0 0 29 29" fill="none" xmlns="http://www.w3.org/2000/svg">
<path d="M14.5003 2.41667C7.83033 2.41667 2.41699 7.83001 2.41699 14.5C2.41699 21.17 7.83033 26.5833 14.5003 26.5833C21.1703 26.5833 26.5837 21.17 26.5837 14.5C26.5837 7.83001 21.1703 2.41667 14.5003 2.41667ZM14.5003 7.25001C16.8324 7.25001 18.7295 9.14709 18.7295 11.4792C18.7295 13.8113 16.8324 15.7083 14.5003 15.7083C12.1682 15.7083 10.2712 13.8113 10.2712 11.4792C10.2712 9.14709 12.1682 7.25001 14.5003 7.25001ZM14.5003 24.1667C12.0474 24.1667 9.14741 23.1758 7.08116 20.6867C9.19768 19.0261 11.8101 18.1236 14.5003 18.1236C17.1905 18.1236 19.803 19.0261 21.9195 20.6867C19.8532 23.1758 16.9532 24.1667 14.5003 24.1667Z" fill="#B6B9BA"/>
</svg>
