<svg width="29" height="29" viewBox="0 0 29 29" fill="none" xmlns="http://www.w3.org/2000/svg">
<path d="M15.1822 7.73145H13.82C13.6954 7.73145 13.5934 7.8334 13.5934 7.95801V15.7546C13.5934 15.8282 13.6274 15.8962 13.6869 15.9387L18.3682 19.3569C18.4702 19.4306 18.6118 19.4107 18.6854 19.3088L19.4954 18.2043C19.5718 18.0995 19.5492 17.9579 19.4472 17.8871L15.4087 14.9673V7.95801C15.4087 7.8334 15.3068 7.73145 15.1822 7.73145ZM21.407 9.86114L25.8476 10.9458C25.9892 10.9798 26.128 10.8722 26.128 10.7277L26.1506 6.15401C26.1506 5.96426 25.9326 5.85664 25.7853 5.97559L21.322 9.46182C21.2883 9.48792 21.2626 9.523 21.2479 9.56304C21.2332 9.60309 21.2302 9.64646 21.239 9.68817C21.2479 9.72988 21.2684 9.76825 21.2981 9.79884C21.3278 9.82944 21.3655 9.85103 21.407 9.86114ZM26.1563 18.3884L24.5505 17.8361C24.4945 17.8169 24.4333 17.8204 24.3798 17.8458C24.3264 17.8712 24.285 17.9165 24.2645 17.9721C24.2107 18.1165 24.154 18.2581 24.0946 18.3997C23.5905 19.592 22.8683 20.6653 21.9451 21.5857C21.0321 22.5016 19.9501 23.2316 18.759 23.7353C17.5252 24.2569 16.1989 24.5247 14.8593 24.5226C13.5056 24.5226 12.1944 24.2592 10.9596 23.7353C9.76857 23.2316 8.68657 22.5016 7.77358 21.5857C6.85317 20.6653 6.131 19.592 5.62407 18.3997C5.10529 17.1652 4.83949 15.8391 4.84243 14.5C4.84243 13.1463 5.1058 11.8322 5.62973 10.5975C6.13383 9.40518 6.856 8.33184 7.77924 7.41143C8.69223 6.4956 9.77424 5.76561 10.9653 5.26192C12.1944 4.73799 13.5084 4.47461 14.8622 4.47461C16.2159 4.47461 17.5271 4.73799 18.7619 5.26192C19.9529 5.76561 21.0349 6.4956 21.9479 7.41143C22.2368 7.70313 22.5086 8.00616 22.7579 8.32618L24.4514 7.00078C22.2226 4.15176 18.7534 2.31944 14.8565 2.32227C8.07094 2.3251 2.62211 7.83623 2.69008 14.6246C2.75805 21.294 8.18139 26.6777 14.8622 26.6777C20.1156 26.6777 24.5902 23.3473 26.2951 18.6829C26.3375 18.564 26.2752 18.4309 26.1563 18.3884Z" fill="#B6B9BA"/>
</svg>
