<svg width="25" height="25" viewBox="0 0 25 25" fill="none" xmlns="http://www.w3.org/2000/svg">
<path d="M14.0156 7.76562C14.2357 7.55607 14.5286 7.44023 14.8325 7.44253C15.1364 7.44483 15.4275 7.56509 15.6444 7.77795C15.8614 7.9908 15.9871 8.2796 15.9951 8.5834C16.0032 8.88719 15.8929 9.18223 15.6875 9.40625L9.45313 17.2031C9.34593 17.3186 9.21654 17.4113 9.07271 17.4756C8.92888 17.5399 8.77355 17.5745 8.61602 17.5775C8.45849 17.5804 8.30199 17.5515 8.15587 17.4925C8.00976 17.4336 7.87703 17.3458 7.76563 17.2344L3.63125 13.1C3.51612 12.9927 3.42377 12.8633 3.35972 12.7196C3.29567 12.5758 3.26123 12.4207 3.25845 12.2633C3.25568 12.106 3.28462 11.9497 3.34356 11.8038C3.4025 11.6578 3.49023 11.5253 3.6015 11.414C3.71278 11.3027 3.84534 11.215 3.99126 11.1561C4.13717 11.0971 4.29347 11.0682 4.45082 11.0709C4.60817 11.0737 4.76334 11.1082 4.90709 11.1722C5.05084 11.2363 5.18022 11.3286 5.2875 11.4437L8.55938 14.7141L13.9844 7.8C13.9941 7.78794 14.0045 7.77646 14.0156 7.76562ZM12.5781 15.7969L14.0156 17.2344C14.127 17.3455 14.2596 17.4332 14.4056 17.492C14.5516 17.5508 14.7079 17.5796 14.8652 17.5767C15.0226 17.5737 15.1777 17.5392 15.3214 17.475C15.4651 17.4108 15.5944 17.3184 15.7016 17.2031L21.9391 9.40625C22.0511 9.29563 22.1397 9.16356 22.1996 9.01793C22.2595 8.8723 22.2894 8.7161 22.2875 8.55866C22.2857 8.40121 22.2522 8.24575 22.1889 8.10156C22.1257 7.95737 22.034 7.8274 21.9194 7.71942C21.8048 7.61144 21.6696 7.52766 21.5219 7.47309C21.3742 7.41851 21.217 7.39426 21.0598 7.40178C20.9025 7.4093 20.7483 7.44844 20.6065 7.51686C20.4647 7.58528 20.3381 7.68158 20.2344 7.8L14.8078 14.7141L14.05 13.9547L12.5766 15.7969H12.5781Z" fill="white"/>
</svg>
