<svg width="21" height="21" viewBox="0 0 21 21" fill="none" xmlns="http://www.w3.org/2000/svg">
<g clip-path="url(#clip0_22_41)">
<path d="M2.625 0C1.92881 0 1.26113 0.276562 0.768845 0.768845C0.276562 1.26113 0 1.92881 0 2.625L0 18.375C0 19.0712 0.276562 19.7389 0.768845 20.2312C1.26113 20.7234 1.92881 21 2.625 21H18.375C19.0712 21 19.7389 20.7234 20.2312 20.2312C20.7234 19.7389 21 19.0712 21 18.375V2.625C21 1.92881 20.7234 1.26113 20.2312 0.768845C19.7389 0.276562 19.0712 0 18.375 0L2.625 0ZM15.7894 6.52312C15.9717 6.70524 16.0753 6.95157 16.078 7.20924C16.0807 7.46691 15.9823 7.71536 15.8038 7.90125L10.5643 14.4506C10.4743 14.5476 10.3656 14.6255 10.2448 14.6795C10.1239 14.7335 9.99347 14.7626 9.86114 14.7651C9.72882 14.7675 9.59735 14.7433 9.47462 14.6937C9.35188 14.6442 9.24039 14.5705 9.14681 14.4769L5.67525 11.004C5.57854 10.9139 5.50096 10.8052 5.44716 10.6845C5.39336 10.5637 5.36443 10.4334 5.3621 10.3012C5.35977 10.169 5.38408 10.0377 5.43359 9.91515C5.4831 9.79258 5.55679 9.68124 5.65026 9.58776C5.74374 9.49429 5.85508 9.4206 5.97765 9.37109C6.10022 9.32158 6.23151 9.29727 6.36369 9.2996C6.49586 9.30193 6.62621 9.33086 6.74696 9.38466C6.86771 9.43846 6.97638 9.51604 7.0665 9.61275L9.81488 12.3598L14.3732 6.552C14.4631 6.45483 14.5716 6.37679 14.6923 6.32253C14.813 6.26828 14.9435 6.23892 15.0758 6.23623C15.2081 6.23353 15.3396 6.25755 15.4625 6.30685C15.5853 6.35614 15.6969 6.4297 15.7907 6.52312H15.7894Z" fill="#11B318"/>
</g>
<defs>
<clipPath id="clip0_22_41">
<rect width="21" height="21" fill="white"/>
</clipPath>
</defs>
</svg>
