<svg width="123" height="123" viewBox="0 0 123 123" fill="none" xmlns="http://www.w3.org/2000/svg">
<path fill-rule="evenodd" clip-rule="evenodd" d="M66.375 0C35.2406 0 10 25.2406 10 56.375C10 87.5094 35.2406 112.75 66.375 112.75C97.5094 112.75 122.75 87.5094 122.75 56.375C122.75 25.2406 97.5094 0 66.375 0ZM90.811 46.8425C91.261 46.3282 91.6035 45.729 91.8185 45.0804C92.0335 44.4317 92.1166 43.7466 92.0629 43.0653C92.0092 42.384 91.8198 41.7204 91.5058 41.1134C91.1919 40.5064 90.7597 39.9684 90.2347 39.5309C89.7097 39.0934 89.1025 38.7653 88.4489 38.5659C87.7952 38.3666 87.1083 38.3 86.4285 38.37C85.7487 38.44 85.0898 38.6453 84.4906 38.9737C83.8913 39.3022 83.3638 39.7472 82.939 40.2825L60.9015 66.7224L49.4984 55.3141C48.5318 54.3806 47.2372 53.864 45.8934 53.8757C44.5497 53.8873 43.2643 54.4263 42.3141 55.3766C41.3638 56.3268 40.8248 57.6122 40.8132 58.9559C40.8015 60.2997 41.3181 61.5943 42.2516 62.5609L57.6266 77.9359C58.1302 78.4391 58.7331 78.832 59.3969 79.0893C60.0607 79.3467 60.7708 79.4629 61.482 79.4306C62.1932 79.3983 62.8899 79.2181 63.5276 78.9017C64.1653 78.5852 64.7301 78.1393 65.186 77.5925L90.811 46.8425Z" fill="#1BA53A"/>
</svg>
