<svg width="35" height="35" viewBox="0 0 35 35" fill="none" xmlns="http://www.w3.org/2000/svg">
<path d="M10.2084 26.25C8.60421 26.25 7.30629 27.5625 7.30629 29.1667C7.30629 30.7708 8.60421 32.0833 10.2084 32.0833C11.8125 32.0833 13.125 30.7708 13.125 29.1667C13.125 27.5625 11.8125 26.25 10.2084 26.25ZM24.7917 26.25C23.1875 26.25 21.8896 27.5625 21.8896 29.1667C21.8896 30.7708 23.1875 32.0833 24.7917 32.0833C26.3959 32.0833 27.7084 30.7708 27.7084 29.1667C27.7084 27.5625 26.3959 26.25 24.7917 26.25ZM11.8125 18.9583H22.6771C23.7709 18.9583 24.7334 18.3604 25.2292 17.4562L30.625 7.23332L28.073 5.83332L22.6771 16.0417H12.4396L6.22712 2.91666H1.45837V5.83332H4.37504L9.62504 16.9021L7.65629 20.4604C6.59171 22.4146 7.99171 24.7917 10.2084 24.7917H27.7084V21.875H10.2084L11.8125 18.9583ZM17.5 2.91666L23.3334 8.74999L17.5 14.5833L15.4438 12.5271L17.748 10.2083H11.6667V7.29166H17.748L15.4292 4.97291L17.5 2.91666Z" fill="white"/>
</svg>
