<svg width="29" height="29" viewBox="0 0 29 29" fill="none" xmlns="http://www.w3.org/2000/svg">
<path d="M24.1667 4.83333H4.83334C3.50417 4.83333 2.42876 5.92083 2.42876 7.25L2.41667 21.75C2.41667 23.0792 3.50417 24.1667 4.83334 24.1667H24.1667C25.4958 24.1667 26.5833 23.0792 26.5833 21.75V7.25C26.5833 5.92083 25.4958 4.83333 24.1667 4.83333ZM23.6833 9.96875L15.1404 15.3096C14.7538 15.5512 14.2463 15.5512 13.8596 15.3096L5.31667 9.96875C5.19551 9.90073 5.08941 9.80884 5.00479 9.69863C4.92017 9.58842 4.85879 9.46219 4.82437 9.32757C4.78995 9.19296 4.7832 9.05275 4.80453 8.91545C4.82586 8.77815 4.87483 8.64661 4.94847 8.52878C5.02211 8.41095 5.1189 8.30929 5.23297 8.22995C5.34703 8.15061 5.47602 8.09524 5.6121 8.06719C5.74819 8.03914 5.88856 8.039 6.0247 8.06677C6.16085 8.09454 6.28994 8.14964 6.40417 8.22875L14.5 13.2917L22.5958 8.22875C22.7101 8.14964 22.8392 8.09454 22.9753 8.06677C23.1115 8.039 23.2518 8.03914 23.3879 8.06719C23.524 8.09524 23.653 8.15061 23.767 8.22995C23.8811 8.30929 23.9779 8.41095 24.0515 8.52878C24.1252 8.64661 24.1742 8.77815 24.1955 8.91545C24.2168 9.05275 24.2101 9.19296 24.1756 9.32757C24.1412 9.46219 24.0798 9.58842 23.9952 9.69863C23.9106 9.80884 23.8045 9.90073 23.6833 9.96875Z" fill="#D6D6D6"/>
</svg>
