<svg width="47" height="47" viewBox="0 0 47 47" fill="none" xmlns="http://www.w3.org/2000/svg">
<g clip-path="url(#clip0_18_580)">
<path d="M27.2982 0H11.75C10.1919 0 8.69752 0.618972 7.59575 1.72075C6.49397 2.82252 5.875 4.31685 5.875 5.875V41.125C5.875 42.6831 6.49397 44.1775 7.59575 45.2793C8.69752 46.381 10.1919 47 11.75 47H35.25C36.8081 47 38.3025 46.381 39.4043 45.2793C40.506 44.1775 41.125 42.6831 41.125 41.125V13.8268C41.1248 13.0478 40.8152 12.3008 40.2643 11.75L29.375 0.860688C28.8242 0.309761 28.0772 0.000166372 27.2982 0V0ZM27.9062 10.2812V4.40625L36.7188 13.2188H30.8438C30.0647 13.2188 29.3175 12.9093 28.7666 12.3584C28.2157 11.8075 27.9062 11.0603 27.9062 10.2812ZM17.2842 19.6225L23.5 27.0808L29.7157 19.6196C29.9654 19.3204 30.3238 19.1327 30.7119 19.0977C31.1 19.0627 31.4861 19.1833 31.7852 19.433C32.0844 19.6827 32.2721 20.041 32.3071 20.4291C32.3421 20.8172 32.2214 21.2033 31.9718 21.5025L25.4123 29.375L31.9718 37.2475C32.2101 37.5479 32.3215 37.9295 32.2822 38.3109C32.2429 38.6924 32.056 39.0433 31.7615 39.2887C31.4669 39.5342 31.088 39.6548 30.7058 39.6246C30.3235 39.5945 29.9682 39.4161 29.7157 39.1275L23.5 31.6692L17.2842 39.1304C17.0346 39.4296 16.6762 39.6173 16.2881 39.6523C15.9 39.6873 15.5139 39.5667 15.2148 39.317C14.9156 39.0673 14.7279 38.709 14.6929 38.3209C14.6579 37.9328 14.7786 37.5467 15.0283 37.2475L21.5877 29.375L15.0283 21.5025C14.8993 21.3551 14.8011 21.1834 14.7395 20.9975C14.6779 20.8116 14.6541 20.6152 14.6695 20.42C14.6849 20.2248 14.7391 20.0346 14.8291 19.8606C14.9191 19.6867 15.043 19.5325 15.1934 19.4071C15.3439 19.2817 15.5179 19.1877 15.7052 19.1306C15.8925 19.0734 16.0894 19.0543 16.2842 19.0744C16.479 19.0945 16.6679 19.1533 16.8396 19.2474C17.0113 19.3416 17.1625 19.4691 17.2842 19.6225Z" fill="#28B32E"/>
</g>
<defs>
<clipPath id="clip0_18_580">
<rect width="47" height="47" fill="white"/>
</clipPath>
</defs>
</svg>
