<svg width="25" height="25" viewBox="0 0 25 25" fill="none" xmlns="http://www.w3.org/2000/svg">
<path d="M14.8809 12.5H4.16666M11.3095 16.0714L14.8809 12.5L11.3095 8.92857V16.0714Z" stroke="white" stroke-linecap="round" stroke-linejoin="round"/>
<path d="M5.35715 10.119V6.5381C5.35714 5.90827 5.60668 5.30411 6.05114 4.85787C6.4956 4.41162 7.09876 4.15966 7.72858 4.15714L17.1952 4.11905C17.508 4.11779 17.818 4.17818 18.1074 4.29675C18.3968 4.41532 18.6601 4.58976 18.882 4.81009C19.104 5.03043 19.2804 5.29234 19.4012 5.58087C19.5219 5.8694 19.5846 6.17889 19.5857 6.49167L19.6333 18.431C19.6346 18.7436 19.5742 19.0535 19.4557 19.3428C19.3373 19.6322 19.1629 19.8954 18.9427 20.1173C18.7225 20.3393 18.4607 20.5157 18.1723 20.6365C17.8839 20.7574 17.5746 20.8202 17.2619 20.8214H7.7381C7.10663 20.8214 6.50103 20.5706 6.05451 20.1241C5.608 19.6775 5.35715 19.0719 5.35715 18.4405V14.881" stroke="white" stroke-linecap="round" stroke-linejoin="round"/>
</svg>
