<svg width="25" height="25" viewBox="0 0 25 25" fill="none" xmlns="http://www.w3.org/2000/svg">
<path d="M9.89583 12.5C12.1937 12.5 14.0625 10.6313 14.0625 8.33335C14.0625 6.03544 12.1937 4.16669 9.89583 4.16669C7.59792 4.16669 5.72917 6.03544 5.72917 8.33335C5.72917 10.6313 7.59792 12.5 9.89583 12.5ZM11.4583 13.5417H8.33333C4.88646 13.5417 2.08333 16.3448 2.08333 19.7917V20.8334H17.7083V19.7917C17.7083 16.3448 14.9052 13.5417 11.4583 13.5417Z" fill="white"/>
<path d="M17.2958 11.5083C17.9303 10.4272 18.2042 9.17218 18.0781 7.92499C17.8917 6.06665 16.8542 4.42395 15.1583 3.29999L14.0073 5.0354C15.1729 5.80832 15.8823 6.90936 16.0052 8.13332C16.0619 8.70217 15.9911 9.27651 15.7979 9.81455C15.6047 10.3526 15.2941 10.8408 14.8885 11.2437L13.6469 12.4854L15.3323 12.9802C19.7406 14.2719 19.7917 18.7052 19.7917 18.75H21.875C21.875 16.8864 20.8792 13.2448 17.2958 11.5083Z" fill="white"/>
</svg>
