<svg width="29" height="29" viewBox="0 0 29 29" fill="none" xmlns="http://www.w3.org/2000/svg">
<path d="M5.4375 3.625C5.4375 2.66359 5.81942 1.74156 6.49924 1.06174C7.17906 0.381919 8.10109 0 9.0625 0L19.9375 0C20.8989 0 21.8209 0.381919 22.5008 1.06174C23.1806 1.74156 23.5625 2.66359 23.5625 3.625V25.375C23.5625 26.3364 23.1806 27.2584 22.5008 27.9383C21.8209 28.6181 20.8989 29 19.9375 29H9.0625C8.10109 29 7.17906 28.6181 6.49924 27.9383C5.81942 27.2584 5.4375 26.3364 5.4375 25.375V3.625ZM16.3125 23.5625C16.3125 23.0818 16.1215 22.6208 15.7816 22.2809C15.4417 21.941 14.9807 21.75 14.5 21.75C14.0193 21.75 13.5583 21.941 13.2184 22.2809C12.8785 22.6208 12.6875 23.0818 12.6875 23.5625C12.6875 24.0432 12.8785 24.5042 13.2184 24.8441C13.5583 25.184 14.0193 25.375 14.5 25.375C14.9807 25.375 15.4417 25.184 15.7816 24.8441C16.1215 24.5042 16.3125 24.0432 16.3125 23.5625Z" fill="#D6D6D6"/>
</svg>
