<svg width="29" height="29" viewBox="0 0 29 29" fill="none" xmlns="http://www.w3.org/2000/svg">
<path d="M26.8049 14.3018L15.1397 2.64512C15.0558 2.56096 14.956 2.4942 14.8462 2.44864C14.7363 2.40309 14.6186 2.37964 14.4997 2.37964C14.3808 2.37964 14.2631 2.40309 14.1532 2.44864C14.0434 2.4942 13.9437 2.56096 13.8597 2.64512L2.19453 14.3018C1.85469 14.6416 1.66211 15.1032 1.66211 15.5847C1.66211 16.5844 2.4749 17.3972 3.47461 17.3972H4.70371V25.7148C4.70371 26.2161 5.10869 26.6211 5.60996 26.6211H12.6872V20.2773H15.8591V26.6211H23.3895C23.8907 26.6211 24.2957 26.2161 24.2957 25.7148V17.3972H25.5248C26.0062 17.3972 26.4679 17.2074 26.8077 16.8647C27.5129 16.1567 27.5129 15.0098 26.8049 14.3018Z" fill="#1591D8"/>
</svg>
