<svg width="25" height="25" viewBox="0 0 25 25" fill="none" xmlns="http://www.w3.org/2000/svg">
<path d="M3.8086 7.1289L5.52491 7.1289C5.6421 7.1289 5.75196 7.07763 5.8252 6.9873C5.9961 6.77978 6.17921 6.57959 6.37208 6.38916C7.16091 5.59953 8.09529 4.97026 9.12354 4.53613C10.1888 4.08618 11.3338 3.85536 12.4902 3.85742C13.6597 3.85742 14.7925 4.08691 15.8569 4.53613C16.8852 4.97026 17.8196 5.59953 18.6084 6.38915C19.3986 7.17611 20.0288 8.10886 20.4639 9.13574C20.9155 10.2002 21.1426 11.3306 21.1426 12.5C21.1426 13.6694 20.9131 14.7998 20.4639 15.8643C20.0293 16.8921 19.4043 17.8174 18.6084 18.6108C17.8125 19.4043 16.8872 20.0293 15.8569 20.4639C14.7925 20.9131 13.6597 21.1426 12.4902 21.1426C11.3208 21.1426 10.188 20.9155 9.12354 20.4639C8.09327 20.0293 7.16798 19.4043 6.37208 18.6108C6.17921 18.418 5.99854 18.2178 5.8252 18.0127C5.75196 17.9224 5.63966 17.8711 5.52491 17.8711L3.8086 17.8711C3.65479 17.8711 3.55958 18.042 3.64503 18.1714C5.51759 21.0815 8.79395 23.0078 12.5171 22.998C18.3667 22.9834 23.0566 18.2349 22.9981 12.3926C22.9395 6.64306 18.2568 2.00195 12.4902 2.00195C8.77686 2.00195 5.51514 3.92578 3.64503 6.82861C3.56202 6.958 3.65479 7.1289 3.8086 7.1289ZM1.63819 12.6538L5.10255 15.3882C5.23194 15.4907 5.41993 15.3979 5.41993 15.2344L5.41993 13.3789L13.0859 13.3789C13.1934 13.3789 13.2813 13.291 13.2813 13.1836L13.2813 11.8164C13.2813 11.709 13.1934 11.6211 13.0859 11.6211L5.41993 11.6211L5.41993 9.76562C5.41993 9.60205 5.2295 9.50927 5.10255 9.61181L1.63819 12.3462C1.61485 12.3645 1.59597 12.3878 1.58298 12.4144C1.57 12.4411 1.56325 12.4704 1.56325 12.5C1.56325 12.5296 1.57 12.5589 1.58298 12.5855C1.59597 12.6122 1.61485 12.6355 1.63819 12.6538Z" fill="white"/>
</svg>
