<svg width="29" height="29" viewBox="0 0 29 29" fill="none" xmlns="http://www.w3.org/2000/svg">
<path d="M24.1667 14.5C24.1667 13.1672 23.0828 12.0833 21.75 12.0833H20.5417V8.45832C20.5417 5.12695 17.8314 2.41666 14.5 2.41666C11.1686 2.41666 8.45833 5.12695 8.45833 8.45832V12.0833H7.24999C5.9172 12.0833 4.83333 13.1672 4.83333 14.5V24.1667C4.83333 25.4994 5.9172 26.5833 7.24999 26.5833H21.75C23.0828 26.5833 24.1667 25.4994 24.1667 24.1667V14.5ZM10.875 8.45832C10.875 6.45974 12.5014 4.83332 14.5 4.83332C16.4986 4.83332 18.125 6.45974 18.125 8.45832V12.0833H10.875V8.45832Z" fill="#D6D6D6"/>
</svg>
