<svg width="33" height="27" viewBox="0 0 33 27" fill="none" xmlns="http://www.w3.org/2000/svg">
<g clip-path="url(#clip0_22_50)">
<path d="M32.0286 2.80809C30.0285 1.96917 28.0268 1.64999 26.0262 1.64999C19.6752 1.64948 13.3248 4.8644 6.97383 4.8644C5.38106 4.8644 3.78933 4.66228 2.19656 4.15696C2.01764 4.10024 1.8382 4.07343 1.66289 4.07343C0.7755 4.07343 0 4.76024 0 5.71363V22.0724C0 22.7236 0.372797 23.3408 0.971438 23.5914C2.97155 24.4308 4.9732 24.75 6.97383 24.75C13.3248 24.75 19.6757 21.5351 26.0267 21.5351C27.6195 21.5351 29.2112 21.7372 30.804 22.2425C30.9829 22.2992 31.1623 22.326 31.3376 22.326C32.225 22.326 33.0005 21.6392 33.0005 20.6858V4.32763C33 3.67588 32.6272 3.0592 32.0286 2.80809ZM2.475 6.81759C3.51244 7.07746 4.59525 7.20792 5.709 7.27804C5.40581 8.79346 4.07344 9.93557 2.475 9.93557V6.81759ZM2.475 21.5129V19.0492C4.2472 19.0492 5.68116 20.4554 5.76005 22.2152C4.59834 22.1219 3.51244 21.8898 2.475 21.5129ZM16.5 18.15C14.2215 18.15 12.375 15.9333 12.375 13.2C12.375 10.4662 14.222 8.24999 16.5 8.24999C18.778 8.24999 20.625 10.4662 20.625 13.2C20.625 15.9344 18.7775 18.15 16.5 18.15ZM30.525 19.5824C29.6216 19.356 28.6837 19.2292 27.7241 19.1472C28.0268 17.8025 29.1421 16.7815 30.525 16.6062V19.5824ZM30.525 7.40798C28.9322 7.20637 27.6963 5.87657 27.6473 4.23431C28.6548 4.3462 29.6113 4.55554 30.525 4.88709V7.40798Z" fill="white"/>
</g>
<defs>
<clipPath id="clip0_22_50">
<rect width="33" height="26.4" fill="white"/>
</clipPath>
</defs>
</svg>
