<svg width="29" height="29" viewBox="0 0 29 29" fill="none" xmlns="http://www.w3.org/2000/svg">
<path d="M3.625 6.04167V22.9583C3.625 25.6179 5.79275 26.5833 7.25 26.5833H25.375V24.1667H7.2645C6.70625 24.1522 6.04167 23.9322 6.04167 22.9583C6.04167 21.9844 6.70625 21.7645 7.2645 21.75H25.375V4.83333C25.375 3.50054 24.2911 2.41667 22.9583 2.41667H7.25C5.79275 2.41667 3.625 3.38212 3.625 6.04167Z" fill="#B6B9BA"/>
<g clip-path="url(#clip0_64_2110)">
<path d="M22.2761 8.54134C21.3111 8.19802 20.3454 8.0674 19.3801 8.0674C16.316 8.06719 13.2521 9.38286 10.1879 9.38286C9.41945 9.38286 8.65149 9.30015 7.88302 9.09335C7.7967 9.07014 7.71012 9.05917 7.62554 9.05917C7.1974 9.05917 6.82324 9.34024 6.82324 9.7304V16.425C6.82324 16.6915 7.00311 16.9441 7.29193 17.0467C8.25693 17.3902 9.22267 17.5208 10.1879 17.5208C13.2521 17.5208 16.3162 16.2052 19.3804 16.2052C20.1488 16.2052 20.9168 16.2879 21.6853 16.4947C21.7716 16.5179 21.8582 16.5289 21.9428 16.5289C22.3709 16.5289 22.7451 16.2478 22.7451 15.8576V9.1632C22.7448 8.89648 22.5649 8.6441 22.2761 8.54134ZM8.01736 10.1822C8.51789 10.2885 9.04032 10.3419 9.57767 10.3706C9.43139 10.9908 8.78856 11.4582 8.01736 11.4582V10.1822ZM8.01736 16.1961V15.1879C8.8724 15.1879 9.56424 15.7633 9.6023 16.4835C9.04181 16.4453 8.51789 16.3503 8.01736 16.1961ZM14.784 14.8199C13.6847 14.8199 12.7938 13.9127 12.7938 12.7941C12.7938 11.6753 13.6849 10.7684 14.784 10.7684C15.8831 10.7684 16.7742 11.6753 16.7742 12.7941C16.7742 13.9131 15.8829 14.8199 14.784 14.8199ZM21.5507 15.4061C21.1148 15.3134 20.6623 15.2615 20.1994 15.228C20.3454 14.6776 20.8835 14.2598 21.5507 14.1881V15.4061ZM21.5507 10.4238C20.7822 10.3413 20.1859 9.79708 20.1623 9.125C20.6484 9.17079 21.1099 9.25647 21.5507 9.39215V10.4238Z" fill="white"/>
</g>
<defs>
<clipPath id="clip0_64_2110">
<rect width="15.9216" height="10.8039" fill="white" transform="translate(6.82324 7.39216)"/>
</clipPath>
</defs>
</svg>
