<svg width="15" height="15" viewBox="0 0 15 15" fill="none" xmlns="http://www.w3.org/2000/svg">
<path d="M5.44187 12.3169L11.25 6.50875L8.49125 3.75L2.68313 9.55813C2.60316 9.63819 2.54637 9.7384 2.51875 9.84813L1.875 13.125L5.15125 12.4813C5.26125 12.4538 5.36187 12.3969 5.44187 12.3169ZM13.125 4.63375C13.3593 4.39934 13.491 4.08146 13.491 3.75C13.491 3.41855 13.3593 3.10066 13.125 2.86625L12.1337 1.875C11.8993 1.64066 11.5815 1.50902 11.25 1.50902C10.9185 1.50902 10.6007 1.64066 10.3663 1.875L9.375 2.86625L12.1337 5.625L13.125 4.63375Z" fill="white"/>
</svg>
