<svg width="47" height="47" viewBox="0 0 47 47" fill="none" xmlns="http://www.w3.org/2000/svg">
<path d="M11.7565 9.67696V11.75H10.0712C8.29048 11.75 6.58267 12.4574 5.3235 13.7166C4.06433 14.9757 3.35693 16.6835 3.35693 18.4643V30.2143C3.35693 31.5498 3.88748 32.8307 4.83186 33.7751C5.77624 34.7194 7.05709 35.25 8.39265 35.25H11.7498V36.9286C11.7498 38.2641 12.2803 39.545 13.2247 40.4894C14.1691 41.4337 15.45 41.9643 16.7855 41.9643H30.2141C31.5496 41.9643 32.8305 41.4337 33.7749 40.4894C34.7192 39.545 35.2498 38.2641 35.2498 36.9286V35.25H38.6069C39.9425 35.25 41.2233 34.7194 42.1677 33.7751C43.1121 32.8307 43.6426 31.5498 43.6426 30.2143V18.4643C43.6426 16.6835 42.9352 14.9757 41.6761 13.7166C40.4169 12.4574 38.7091 11.75 36.9284 11.75H35.2498V9.65514C35.2498 9.04838 35.1302 8.44758 34.8978 7.88709C34.6654 7.32661 34.3248 6.81744 33.8954 6.38871C33.466 5.95998 32.9564 5.6201 32.3956 5.38852C31.8347 5.15693 31.2338 5.03818 30.627 5.03907L16.3659 5.06089C15.1428 5.06267 13.9704 5.54979 13.1061 6.41528C12.2419 7.28076 11.7565 8.45386 11.7565 9.67696ZM32.7319 9.65514V11.75H14.2744V9.67696C14.2744 8.51875 15.211 7.58042 16.3692 7.57875L30.6304 7.55692C30.9062 7.55648 31.1794 7.61043 31.4343 7.71568C31.6893 7.82092 31.921 7.97541 32.1162 8.17029C32.3114 8.36517 32.4662 8.59662 32.5719 8.85141C32.6776 9.1062 32.7319 9.37931 32.7319 9.65514ZM16.7855 26.0179H30.2141C30.8819 26.0179 31.5223 26.2831 31.9945 26.7553C32.4667 27.2275 32.7319 27.8679 32.7319 28.5357V36.9286C32.7319 37.5963 32.4667 38.2368 31.9945 38.709C31.5223 39.1812 30.8819 39.4464 30.2141 39.4464H16.7855C16.1177 39.4464 15.4773 39.1812 15.0051 38.709C14.5329 38.2368 14.2676 37.5963 14.2676 36.9286V28.5357C14.2676 27.8679 14.5329 27.2275 15.0051 26.7553C15.4773 26.2831 16.1177 26.0179 16.7855 26.0179Z" fill="#BEB711"/>
</svg>
