<svg width="47" height="47" viewBox="0 0 47 47" fill="none" xmlns="http://www.w3.org/2000/svg">
<path d="M16.224 36.4955C16.6353 36.2546 17.0847 36.0196 17.5723 35.7964C17.1604 36.4105 16.7193 37.0046 16.2504 37.5765C15.4279 38.5664 14.7876 39.0923 14.3851 39.2568C14.3517 39.2709 14.3174 39.2827 14.2823 39.292C14.253 39.2513 14.2274 39.2081 14.2059 39.1628C14.0414 38.8396 14.0473 38.5283 14.3234 38.1053C14.6348 37.6206 15.2605 37.0654 16.224 36.4955ZM23.4356 31.6574C23.086 31.7309 22.7394 31.8043 22.3898 31.8866C22.9076 30.8721 23.3974 29.8436 23.8586 28.8022C24.3229 29.6627 24.8227 30.5035 25.3567 31.3226C24.7193 31.4166 24.0759 31.5282 23.4356 31.6574ZM30.8528 34.4158C30.3965 34.0477 29.9693 33.6451 29.5749 33.2114C30.2447 33.2261 30.8498 33.276 31.3727 33.37C32.3039 33.5374 32.7416 33.8018 32.8943 33.9839C32.9425 34.0348 32.9697 34.1019 32.9707 34.1719C32.9604 34.3792 32.8999 34.5808 32.7944 34.7594C32.7352 34.9026 32.6401 35.028 32.5183 35.1237C32.4577 35.1609 32.3862 35.1764 32.3156 35.1678C32.0513 35.1589 31.5578 34.9739 30.8528 34.4158ZM24.3168 20.4744C24.1993 21.1911 23.9996 22.0136 23.7293 22.9096C23.6298 22.5741 23.5425 22.2351 23.4679 21.8932C23.2446 20.8563 23.2123 20.0426 23.3328 19.4786C23.4444 18.9586 23.6559 18.7501 23.9085 18.6473C24.044 18.5875 24.1875 18.5479 24.3345 18.5298C24.3726 18.6179 24.4167 18.8 24.4284 19.1114C24.4431 19.4698 24.4079 19.9251 24.3168 20.4773V20.4744Z" fill="#BF3434"/>
<path fill-rule="evenodd" clip-rule="evenodd" d="M11.75 0H27.2982C28.0772 0.000166372 28.8242 0.309761 29.375 0.860688L40.2643 11.75C40.8152 12.3008 41.1248 13.0478 41.125 13.8268V41.125C41.125 42.6831 40.506 44.1775 39.4043 45.2793C38.3025 46.381 36.8081 47 35.25 47H11.75C10.1919 47 8.69752 46.381 7.59575 45.2793C6.49397 44.1775 5.875 42.6831 5.875 41.125V5.875C5.875 4.31685 6.49397 2.82252 7.59575 1.72075C8.69752 0.618972 10.1919 0 11.75 0V0ZM27.9062 4.40625V10.2812C27.9062 11.0603 28.2157 11.8075 28.7666 12.3584C29.3175 12.9093 30.0647 13.2188 30.8438 13.2188H36.7188L27.9062 4.40625ZM12.2347 40.1497C12.4991 40.6785 12.9103 41.1573 13.5213 41.3806C14.1294 41.6009 14.7316 41.4981 15.2251 41.2924C16.1592 40.9106 17.0904 40.0117 17.9452 38.9836C18.9234 37.8056 19.9515 36.2605 20.9444 34.5479C22.8612 33.9798 24.8241 33.5808 26.8106 33.3553C27.6918 34.4804 28.6024 35.4497 29.4837 36.1459C30.3062 36.7922 31.255 37.3298 32.2273 37.3709C32.7569 37.3971 33.2813 37.2552 33.7254 36.9655C34.1807 36.6688 34.5186 36.2399 34.7653 35.7435C35.0297 35.2118 35.1912 34.6566 35.1707 34.0897C35.1521 33.5307 34.945 32.9945 34.5832 32.5681C33.9193 31.7749 32.8324 31.3931 31.7632 31.2021C30.4661 31.0012 29.1501 30.9519 27.8416 31.0552C26.7367 29.4932 25.7733 27.8358 24.9629 26.1026C25.6973 24.1639 26.2466 22.3309 26.4904 20.8328C26.5961 20.1924 26.6519 19.5814 26.6314 19.0291C26.6277 18.4809 26.5002 17.9407 26.2583 17.4487C26.119 17.1773 25.9209 16.9402 25.6786 16.7547C25.4362 16.5693 25.1556 16.4401 24.8571 16.3766C24.2638 16.2502 23.6528 16.3766 23.0917 16.6028C21.9843 17.0434 21.3997 17.9834 21.1794 19.0203C20.9649 20.0191 21.0619 21.1823 21.3145 22.3573C21.573 23.5499 22.0136 24.8483 22.5776 26.1614C21.6755 28.405 20.6336 30.5899 19.458 32.7032C17.9441 33.1795 16.4849 33.8146 15.1046 34.5979C14.0178 35.2441 13.0513 36.0079 12.4697 36.9097C11.8528 37.8673 11.6619 39.0071 12.2347 40.1497Z" fill="#BF3434"/>
</svg>
