<svg width="20" height="20" viewBox="0 0 20 20" fill="none" xmlns="http://www.w3.org/2000/svg">
<g clip-path="url(#clip0_18_489)">
<path d="M7.2094 10.2304C7.33565 10.7771 6.73585 11.1927 6.26925 10.901L4.678 9.90665L2.691 13.0864C2.1721 13.9167 2.77186 14.9998 3.75046 14.9998H5.78124C6.0401 14.9998 6.24999 15.2097 6.24999 15.4685V17.031C6.24999 17.2899 6.0401 17.4998 5.78124 17.4998H3.75448C0.811745 17.4998 -0.98388 14.2557 0.57448 11.7623L2.55971 8.58306L0.968894 7.58899C0.49698 7.29419 0.618659 6.57489 1.15948 6.45001L5.46561 5.45587C5.80198 5.37821 6.13753 5.58794 6.21518 5.92423L7.2094 10.2304ZM11.0594 3.08524L12.6723 5.66634L11.0809 6.66075C10.6101 6.95481 10.7293 7.67454 11.2715 7.79974L15.5776 8.79388C15.9164 8.87196 16.2501 8.65958 16.3272 8.32552L17.3213 4.01939C17.4462 3.4786 16.853 3.0538 16.3812 3.34876L14.7918 4.34189L13.18 1.76056C11.7143 -0.584482 8.28901 -0.589872 6.81999 1.76056L6.11831 2.88423C5.9812 3.10376 6.048 3.39286 6.26753 3.53005L7.59249 4.35798C7.81202 4.49517 8.10124 4.42841 8.23843 4.20888L8.94003 3.0861C9.43659 2.29153 10.5796 2.31751 11.0594 3.08524ZM19.4253 11.7623L18.3505 10.041C18.2133 9.82134 17.9241 9.7545 17.7045 9.89173L16.3818 10.7183C16.1623 10.8554 16.0955 11.1446 16.2326 11.3642L17.3094 13.0873C17.8272 13.9159 17.229 14.9998 16.2494 14.9998H12.5V13.1256C12.5 12.5704 11.8265 12.2903 11.4331 12.6836L8.30807 15.8079C8.06397 16.052 8.06397 16.4477 8.30807 16.6918L11.4331 19.8163C11.8238 20.2071 12.5 19.9334 12.5 19.3743V17.4998H16.2453C19.1857 17.4998 20.9849 14.2577 19.4253 11.7623Z" fill="white"/>
</g>
<defs>
<clipPath id="clip0_18_489">
<rect width="20" height="20" fill="white"/>
</clipPath>
</defs>
</svg>
