<svg width="23" height="23" viewBox="0 0 23 23" fill="none" xmlns="http://www.w3.org/2000/svg">
<circle cx="11.5" cy="11.5" r="11.5" fill="#239FE7"/>
<path d="M9.5191 15L7.8591 12.15H6.7591V15H5.8491V8.03H8.0991C8.62577 8.03 9.0691 8.12 9.4291 8.3C9.79577 8.48 10.0691 8.72333 10.2491 9.03C10.4291 9.33667 10.5191 9.68667 10.5191 10.08C10.5191 10.56 10.3791 10.9833 10.0991 11.35C9.82577 11.7167 9.41244 11.96 8.8591 12.08L10.6091 15H9.5191ZM6.7591 11.42H8.0991C8.59244 11.42 8.96244 11.3 9.2091 11.06C9.45577 10.8133 9.5791 10.4867 9.5791 10.08C9.5791 9.66667 9.45577 9.34667 9.2091 9.12C8.9691 8.89333 8.5991 8.78 8.0991 8.78H6.7591V11.42ZM12.8431 10.53C13.0231 10.2167 13.2898 9.95667 13.6431 9.75C14.0031 9.53667 14.4198 9.43 14.8931 9.43C15.3798 9.43 15.8198 9.54667 16.2131 9.78C16.6131 10.0133 16.9264 10.3433 17.1531 10.77C17.3798 11.19 17.4931 11.68 17.4931 12.24C17.4931 12.7933 17.3798 13.2867 17.1531 13.72C16.9264 14.1533 16.6131 14.49 16.2131 14.73C15.8198 14.97 15.3798 15.09 14.8931 15.09C14.4264 15.09 14.0131 14.9867 13.6531 14.78C13.2998 14.5667 13.0298 14.3033 12.8431 13.99V17.6H11.9331V9.52H12.8431V10.53ZM16.5631 12.24C16.5631 11.8267 16.4798 11.4667 16.3131 11.16C16.1464 10.8533 15.9198 10.62 15.6331 10.46C15.3531 10.3 15.0431 10.22 14.7031 10.22C14.3698 10.22 14.0598 10.3033 13.7731 10.47C13.4931 10.63 13.2664 10.8667 13.0931 11.18C12.9264 11.4867 12.8431 11.8433 12.8431 12.25C12.8431 12.6633 12.9264 13.0267 13.0931 13.34C13.2664 13.6467 13.4931 13.8833 13.7731 14.05C14.0598 14.21 14.3698 14.29 14.7031 14.29C15.0431 14.29 15.3531 14.21 15.6331 14.05C15.9198 13.8833 16.1464 13.6467 16.3131 13.34C16.4798 13.0267 16.5631 12.66 16.5631 12.24Z" fill="white"/>
</svg>
