<svg width="25" height="25" viewBox="0 0 25 25" fill="none" xmlns="http://www.w3.org/2000/svg">
<path d="M3.40122 2.56375L22.595 12.0213C22.6996 12.0728 22.7878 12.1527 22.8494 12.2518C22.911 12.3508 22.9437 12.4652 22.9437 12.5819C22.9437 12.6986 22.911 12.8129 22.8494 12.912C22.7878 13.0111 22.6996 13.0909 22.595 13.1425L3.39997 22.6C3.29244 22.6528 3.17199 22.6736 3.05296 22.6599C2.93394 22.6462 2.82136 22.5986 2.72863 22.5228C2.6359 22.4469 2.56693 22.346 2.52994 22.232C2.49295 22.1181 2.48949 21.9959 2.51997 21.88L4.42122 14.6988C4.45204 14.5826 4.51572 14.4777 4.60463 14.3968C4.69354 14.3159 4.80389 14.2623 4.92247 14.2425L13.5237 12.8088C13.575 12.8003 13.6233 12.7791 13.6643 12.7473C13.7054 12.7154 13.7378 12.6738 13.7587 12.6263L13.7812 12.5513C13.7929 12.4817 13.7807 12.4103 13.7467 12.3486C13.7126 12.2869 13.6587 12.2385 13.5937 12.2113L13.5237 12.1913L4.87497 10.75C4.75662 10.73 4.64653 10.6763 4.55786 10.5954C4.4692 10.5145 4.4057 10.4098 4.37497 10.2938L2.51997 3.285C2.48917 3.16905 2.49239 3.04669 2.52925 2.93252C2.56611 2.81835 2.63505 2.7172 2.72784 2.64115C2.82063 2.5651 2.93334 2.51736 3.05253 2.50364C3.17171 2.48991 3.29233 2.51078 3.39997 2.56375H3.40122Z" fill="white"/>
</svg>
