<svg width="45" height="45" viewBox="0 0 45 45" fill="none" xmlns="http://www.w3.org/2000/svg">
<path d="M13.0669 13.0669C13.1976 12.9359 13.3528 12.832 13.5236 12.7611C13.6944 12.6902 13.8776 12.6537 14.0626 12.6537C14.2475 12.6537 14.4307 12.6902 14.6015 12.7611C14.7724 12.832 14.9276 12.9359 15.0582 13.0669L22.5001 20.5116L29.9419 13.0669C30.0727 12.9361 30.2279 12.8324 30.3987 12.7616C30.5696 12.6909 30.7527 12.6545 30.9376 12.6545C31.1225 12.6545 31.3056 12.6909 31.4764 12.7616C31.6472 12.8324 31.8024 12.9361 31.9332 13.0669C32.0639 13.1976 32.1677 13.3528 32.2384 13.5237C32.3092 13.6945 32.3456 13.8776 32.3456 14.0625C32.3456 14.2474 32.3092 14.4305 32.2384 14.6013C32.1677 14.7722 32.0639 14.9274 31.9332 15.0581L24.4885 22.5L31.9332 29.9419C32.0639 30.0726 32.1677 30.2278 32.2384 30.3987C32.3092 30.5695 32.3456 30.7526 32.3456 30.9375C32.3456 31.1224 32.3092 31.3055 32.2384 31.4763C32.1677 31.6472 32.0639 31.8024 31.9332 31.9331C31.8024 32.0639 31.6472 32.1676 31.4764 32.2383C31.3056 32.3091 31.1225 32.3455 30.9376 32.3455C30.7527 32.3455 30.5696 32.3091 30.3987 32.2383C30.2279 32.1676 30.0727 32.0639 29.9419 31.9331L22.5001 24.4884L15.0582 31.9331C14.9274 32.0639 14.7722 32.1676 14.6014 32.2383C14.4306 32.3091 14.2475 32.3455 14.0626 32.3455C13.8777 32.3455 13.6946 32.3091 13.5237 32.2383C13.3529 32.1676 13.1977 32.0639 13.0669 31.9331C12.9362 31.8024 12.8325 31.6472 12.7617 31.4763C12.691 31.3055 12.6545 31.1224 12.6545 30.9375C12.6545 30.7526 12.691 30.5695 12.7617 30.3987C12.8325 30.2278 12.9362 30.0726 13.0669 29.9419L20.5116 22.5L13.0669 15.0581C12.936 14.9275 12.8321 14.7723 12.7612 14.6015C12.6903 14.4306 12.6538 14.2475 12.6538 14.0625C12.6538 13.8775 12.6903 13.6944 12.7612 13.5235C12.8321 13.3527 12.936 13.1975 13.0669 13.0669Z" fill="white"/>
</svg>
